<svg width="51" height="42" viewBox="0 0 51 42" fill="none" xmlns="http://www.w3.org/2000/svg">
<path d="M15.1406 24.2812C15.1406 30.0028 19.7784 34.6406 25.5 34.6406C31.2216 34.6406 35.8594 30.0028 35.8594 24.2812C35.8594 18.5597 31.2216 13.9219 25.5 13.9219C19.7784 13.9219 15.1406 18.5597 15.1406 24.2812ZM47.8125 6.75H36.6562C35.8594 3.5625 35.0625 0.375 31.875 0.375H19.125C15.9375 0.375 15.1406 3.5625 14.3438 6.75H3.1875C1.43437 6.75 0 8.18437 0 9.9375V38.625C0 40.3781 1.43437 41.8125 3.1875 41.8125H47.8125C49.5656 41.8125 51 40.3781 51 38.625V9.9375C51 8.18437 49.5656 6.75 47.8125 6.75ZM25.5 38.4258C17.6874 38.4258 11.3555 32.0938 11.3555 24.2812C11.3555 16.4687 17.6874 10.1367 25.5 10.1367C33.3126 10.1367 39.6445 16.4687 39.6445 24.2812C39.6445 32.0938 33.3126 38.4258 25.5 38.4258ZM47.8125 16.3125H41.4375V13.125H47.8125V16.3125Z" fill="black"/>
</svg>
