<svg width="51" height="51" viewBox="0 0 51 51" fill="none" xmlns="http://www.w3.org/2000/svg">
<path d="M43.0312 35.0615C40.7825 35.0615 38.752 35.9955 37.3033 37.4937L15.8371 26.7607C15.9024 26.3495 15.9375 25.9287 15.9375 25.5C15.9375 25.0713 15.9024 24.6489 15.8371 24.2393L37.3033 13.5063C38.752 15.0045 40.7825 15.9385 43.0312 15.9385C47.4316 15.9385 51 12.3699 51 7.96925C51 3.56863 47.4316 0 43.0312 0C38.6309 0 35.0625 3.56863 35.0625 7.96925C35.0625 8.39799 35.0976 8.82036 35.1629 9.22998L13.6967 19.963C12.248 18.4647 10.2175 17.5308 7.96875 17.5308C3.56841 17.5308 0 21.0994 0 25.5C0 29.9006 3.56841 33.4692 7.96875 33.4692C10.2175 33.4692 12.248 32.5353 13.6967 31.037L35.1629 41.77C35.0976 42.1812 35.0625 42.602 35.0625 43.0308C35.0625 47.4314 38.6309 51 43.0312 51C47.4316 51 51 47.4314 51 43.0308C51 38.6301 47.4316 35.0615 43.0312 35.0615Z" fill="black"/>
</svg>
