<svg width="51" height="51" viewBox="0 0 51 51" fill="none" xmlns="http://www.w3.org/2000/svg">
<path d="M18.1139 35.9614L20.1715 33.0815L17.9179 30.8279L15.038 32.8854C14.5041 32.5874 13.9319 32.3483 13.3311 32.1778L12.7494 28.6875H9.56188L8.98016 32.1778C8.37932 32.3483 7.80716 32.5858 7.27326 32.8854L4.39335 30.8279L2.13979 33.0815L4.19732 35.9614C3.89929 36.4953 3.66023 37.0674 3.49129 37.6683L0.000976562 38.25V41.4375L3.49129 42.0192C3.66182 42.6201 3.89929 43.1922 4.19891 43.7261L2.14138 46.606L4.39495 48.8596L7.27485 46.8021C7.80876 47.1001 8.38091 47.3392 8.98176 47.5097L9.56348 51H12.751L13.3327 47.5097C13.9335 47.3392 14.5057 47.1017 15.0396 46.8021L17.9195 48.8596L20.1731 46.606L18.1155 43.7261C18.4136 43.1922 18.6526 42.6201 18.8232 42.0192L22.3135 41.4375V38.25L18.8232 37.6683C18.6526 37.0674 18.4152 36.4953 18.1155 35.9614H18.1139ZM11.1556 43.0312C9.39454 43.0312 7.96813 41.6048 7.96813 39.8438C7.96813 38.0827 9.39454 36.6562 11.1556 36.6562C12.9167 36.6562 14.3431 38.0827 14.3431 39.8438C14.3431 41.6048 12.9167 43.0312 11.1556 43.0312ZM50.9994 19.125V15.9375L47.6429 15.3271C47.5808 14.9271 47.5027 14.5318 47.4071 14.1429L50.2742 12.2958L49.055 9.35053L45.7209 10.0709C45.5105 9.72666 45.2858 9.39197 45.0483 9.06844L46.9911 6.26184L44.7375 4.00828L41.9309 5.95106C41.6074 5.71359 41.2727 5.48887 40.9285 5.2785L41.6489 1.94438L38.7036 0.725156L36.8564 3.59231C36.4676 3.49828 36.0723 3.41859 35.6723 3.35644L35.0619 0H31.8744L31.264 3.35644C30.8639 3.41859 30.4687 3.49669 30.0798 3.59231L28.2327 0.725156L25.2874 1.94438L26.0078 5.2785C25.6635 5.48887 25.3288 5.71359 25.0053 5.95106L22.1987 4.00828L19.9452 6.26184L21.8879 9.06844C21.6505 9.39197 21.4258 9.72666 21.2154 10.0709L17.8813 9.35053L16.662 12.2958L19.5292 14.1429C19.4352 14.5318 19.3555 14.9271 19.2933 15.3271L15.9369 15.9375V19.125L19.2933 19.7354C19.3555 20.1354 19.4336 20.5307 19.5292 20.9196L16.662 22.7667L17.8813 25.712L21.2154 24.9916C21.4258 25.3358 21.6505 25.6705 21.8879 25.9941L19.9452 28.8007L22.1987 31.0542L25.0053 29.1114C25.3288 29.3489 25.6635 29.5736 26.0078 29.784L25.2874 33.1181L28.2327 34.3373L30.0798 31.4702C30.4687 31.5642 30.8639 31.6439 31.264 31.7061L31.8744 35.0625H35.0619L35.6723 31.7061C36.0723 31.6439 36.4676 31.5658 36.8564 31.4702L38.7036 34.3373L41.6489 33.1181L40.9285 29.784C41.2727 29.5736 41.6074 29.3489 41.9309 29.1114L44.7375 31.0542L46.9911 28.8007L45.0483 25.9941C45.2858 25.6705 45.5105 25.3358 45.7209 24.9916L49.055 25.712L50.2742 22.7667L47.4071 20.9196C47.5011 20.5307 47.5808 20.1354 47.6429 19.7354L50.9994 19.125ZM33.4681 24.4641C29.6399 24.4641 26.5353 21.3594 26.5353 17.5312C26.5353 13.7031 29.6399 10.5984 33.4681 10.5984C37.2963 10.5984 40.4009 13.7031 40.4009 17.5312C40.4009 21.3594 37.2963 24.4641 33.4681 24.4641Z" fill="black"/>
</svg>
