<svg width="51" height="51" viewBox="0 0 51 51" fill="none" xmlns="http://www.w3.org/2000/svg">
<path d="M6.375 44.625H51V51H0V0H6.375V44.625ZM14.3438 41.4375C11.7029 41.4375 9.5625 39.2971 9.5625 36.6562C9.5625 34.0154 11.7029 31.875 14.3438 31.875C14.484 31.875 14.6243 31.883 14.7613 31.8941L19.9012 23.3277C19.4119 22.5771 19.125 21.6814 19.125 20.7172C19.125 18.0763 21.2654 15.9359 23.9062 15.9359C26.5471 15.9359 28.6875 18.0763 28.6875 20.7172C28.6875 21.6798 28.4022 22.5771 27.9113 23.3277L33.0512 31.8941C33.1883 31.883 33.3285 31.875 33.4688 31.875C33.5755 31.875 33.6807 31.8798 33.7843 31.8862L42.2694 17.0388C41.7451 16.2706 41.4375 15.343 41.4375 14.3438C41.4375 11.7029 43.5779 9.5625 46.2188 9.5625C48.8596 9.5625 51 11.7029 51 14.3438C51 16.9846 48.8596 19.125 46.2188 19.125C46.112 19.125 46.0068 19.1202 45.9032 19.1138L37.4181 33.9612C37.9424 34.7278 38.25 35.657 38.25 36.6562C38.25 39.2971 36.1096 41.4375 33.4688 41.4375C30.8279 41.4375 28.6875 39.2971 28.6875 36.6562C28.6875 35.6936 28.9728 34.7963 29.4637 34.0457L24.3238 25.4793C24.1868 25.4904 24.0465 25.4984 23.9062 25.4984C23.766 25.4984 23.6257 25.4904 23.4887 25.4793L18.3488 34.0457C18.8381 34.7963 19.125 35.692 19.125 36.6547C19.125 39.2955 16.9846 41.4359 14.3438 41.4359V41.4375Z" fill="black"/>
</svg>
